<svg width="278" height="6" viewBox="0 0 278 6" fill="none" xmlns="http://www.w3.org/2000/svg">
<ellipse cx="71.9535" cy="3" rx="3.38372" ry="3" fill="#4F4F4F"/>
<ellipse cx="150.907" cy="3" rx="3.38372" ry="3" fill="#4F4F4F"/>
<ellipse cx="229.861" cy="3" rx="3.38372" ry="3" fill="#4F4F4F"/>
<ellipse cx="4.27905" cy="3" rx="3.38372" ry="3" fill="#4F4F4F"/>
<ellipse cx="83.2325" cy="3" rx="3.38372" ry="3" fill="#4F4F4F"/>
<ellipse cx="162.186" cy="3" rx="3.38372" ry="3" fill="#4F4F4F"/>
<ellipse cx="241.14" cy="3" rx="3.38372" ry="3" fill="#4F4F4F"/>
<ellipse cx="15.5582" cy="3" rx="3.38372" ry="3" fill="#4F4F4F"/>
<ellipse cx="94.5117" cy="3" rx="3.38372" ry="3" fill="#4F4F4F"/>
<ellipse cx="173.465" cy="3" rx="3.38372" ry="3" fill="#4F4F4F"/>
<ellipse cx="252.419" cy="3" rx="3.38372" ry="3" fill="#4F4F4F"/>
<ellipse cx="26.8372" cy="3" rx="3.38372" ry="3" fill="#4F4F4F"/>
<ellipse cx="105.791" cy="3" rx="3.38372" ry="3" fill="#4F4F4F"/>
<ellipse cx="184.744" cy="3" rx="3.38372" ry="3" fill="#4F4F4F"/>
<ellipse cx="262.57" cy="3" rx="3.38372" ry="3" fill="#4F4F4F"/>
<ellipse cx="38.1163" cy="3" rx="3.38372" ry="3" fill="#4F4F4F"/>
<ellipse cx="117.07" cy="3" rx="3.38372" ry="3" fill="#4F4F4F"/>
<ellipse cx="196.023" cy="3" rx="3.38372" ry="3" fill="#4F4F4F"/>
<ellipse cx="273.849" cy="3" rx="3.38372" ry="3" fill="#4F4F4F"/>
<ellipse cx="49.3953" cy="3" rx="3.38372" ry="3" fill="#4F4F4F"/>
<ellipse cx="128.349" cy="3" rx="3.38372" ry="3" fill="#4F4F4F"/>
<ellipse cx="207.302" cy="3" rx="3.38372" ry="3" fill="#4F4F4F"/>
<ellipse cx="60.6744" cy="3" rx="3.38372" ry="3" fill="#4F4F4F"/>
<ellipse cx="139.628" cy="3" rx="3.38372" ry="3" fill="#4F4F4F"/>
<ellipse cx="218.581" cy="3" rx="3.38372" ry="3" fill="#4F4F4F"/>
</svg>
