<svg width="264" height="6" viewBox="0 0 264 6" fill="none" xmlns="http://www.w3.org/2000/svg">
<circle cx="3" cy="3" r="3" fill="#4F4F4F"/>
<circle cx="73" cy="3" r="3" fill="white"/>
<circle cx="143" cy="3" r="3" fill="white"/>
<circle cx="213" cy="3" r="3" fill="white"/>
<circle cx="13" cy="3" r="3" fill="white"/>
<circle cx="83" cy="3" r="3" fill="white"/>
<circle cx="153" cy="3" r="3" fill="white"/>
<circle cx="223" cy="3" r="3" fill="white"/>
<circle cx="23" cy="3" r="3" fill="white"/>
<circle cx="93" cy="3" r="3" fill="white"/>
<circle cx="163" cy="3" r="3" fill="white"/>
<circle cx="233" cy="3" r="3" fill="white"/>
<circle cx="33" cy="3" r="3" fill="white"/>
<circle cx="103" cy="3" r="3" fill="white"/>
<circle cx="173" cy="3" r="3" fill="white"/>
<circle cx="242" cy="3" r="3" fill="white"/>
<circle cx="43" cy="3" r="3" fill="white"/>
<circle cx="113" cy="3" r="3" fill="white"/>
<circle cx="183" cy="3" r="3" fill="white"/>
<circle cx="252" cy="3" r="3" fill="white"/>
<circle cx="53" cy="3" r="3" fill="white"/>
<circle cx="123" cy="3" r="3" fill="white"/>
<circle cx="193" cy="3" r="3" fill="white"/>
<circle cx="63" cy="3" r="3" fill="white"/>
<circle cx="133" cy="3" r="3" fill="white"/>
<circle cx="203" cy="3" r="3" fill="white"/>
<circle cx="261" cy="3" r="3" fill="#4F4F4F"/>
</svg>
