<svg width="214" height="6" viewBox="0 0 214 6" fill="none" xmlns="http://www.w3.org/2000/svg">
<circle cx="51" cy="3" r="3" fill="white"/>
<circle cx="121" cy="3" r="3" fill="white"/>
<circle cx="191" cy="3" r="3" fill="white"/>
<circle cx="61" cy="3" r="3" fill="white"/>
<circle cx="131" cy="3" r="3" fill="white"/>
<circle cx="201" cy="3" r="3" fill="white"/>
<circle cx="71" cy="3" r="3" fill="white"/>
<circle cx="141" cy="3" r="3" fill="white"/>
<circle cx="11" cy="3" r="3" fill="white"/>
<circle cx="81" cy="3" r="3" fill="white"/>
<circle cx="151" cy="3" r="3" fill="white"/>
<circle cx="21" cy="3" r="3" fill="white"/>
<circle cx="91" cy="3" r="3" fill="white"/>
<circle cx="161" cy="3" r="3" fill="white"/>
<circle cx="31" cy="3" r="3" fill="white"/>
<circle cx="101" cy="3" r="3" fill="white"/>
<circle cx="171" cy="3" r="3" fill="white"/>
<circle cx="41" cy="3" r="3" fill="white"/>
<circle cx="111" cy="3" r="3" fill="white"/>
<circle cx="181" cy="3" r="3" fill="white"/>
<circle cx="211" cy="3" r="3" fill="#4F4F4F"/>
<circle cx="3" cy="3" r="3" fill="#4F4F4F"/>
</svg>
