<svg width="14" height="16" viewBox="0 0 14 16" fill="none" xmlns="http://www.w3.org/2000/svg">
<path fill-rule="evenodd" clip-rule="evenodd" d="M11.6349 5.74712C11.6349 7.12434 11.1504 8.38842 10.3427 9.37825L13.3442 13.4494C13.718 13.9565 13.61 14.6706 13.103 15.0445C12.5959 15.4183 11.8817 15.3103 11.5079 14.8032L8.57679 10.8276C7.77445 11.2532 6.85925 11.4942 5.88775 11.4942C2.7137 11.4942 0.140625 8.92117 0.140625 5.74712C0.140625 2.57307 2.7137 0 5.88775 0C9.0618 0 11.6349 2.57307 11.6349 5.74712ZM5.88775 9.7259C8.08517 9.7259 9.86653 7.94454 9.86653 5.74712C9.86653 3.54971 8.08517 1.76835 5.88775 1.76835C3.69033 1.76835 1.90897 3.54971 1.90897 5.74712C1.90897 7.94454 3.69033 9.7259 5.88775 9.7259Z" fill="#4F4F4F"/>
</svg>
